# xmcd
#
# Track frame offsets: 
#        225
#        25711
#        51910
#        78374
#        106293
#        132526
#        159384
#        181104
#        207838
#        221877
#
# Disc length: 3253 seconds
#
# Revision: 1
# Processed by: cddbd v1.5.2PL0 Copyright (c) Steve Scherf et al.
# Submitted via: ExactAudioCopy v0.99pb4
#
DISCID=860cb20a
DTITLE=Jimmy Joe's Band - Maybe More Than One
DYEAR=2000
DGENRE=Blues
TTITLE0=That's the way, many love affairs go
TTITLE1=The thrill is gone
TTITLE2=I ain't got the key, no more
TTITLE3=Mother in law
TTITLE4=Steamroller blues
TTITLE5=I loved another woman
TTITLE6=Chasmatrans
TTITLE7=The wind cries Mary
TTITLE8=Wild women
TTITLE9=Maybe more than one
EXTD=YEAR: 2000
EXTT0=
EXTT1=
EXTT2=
EXTT3=
EXTT4=
EXTT5=
EXTT6=
EXTT7=
EXTT8=
EXTT9=
PLAYORDER=
